<svg width="153" height="114" viewBox="0 0 153 114" fill="none" xmlns="http://www.w3.org/2000/svg">
<g opacity="0.7">
<path d="M56.8283 0.309082H40.8262V108.999H56.8283V0.309082Z" fill="#D2D3FF"/>
<path d="M91.1044 0.309082H56.834V108.999H91.1044V0.309082Z" fill="url(#paint0_linear_2488_4209)"/>
<path d="M86.7665 7.25879H60.2207V10.4383H86.7665V7.25879Z" fill="url(#paint1_linear_2488_4209)"/>
<path d="M86.7665 17.1953H60.2207V20.3748H86.7665V17.1953Z" fill="url(#paint2_linear_2488_4209)"/>
<path d="M86.7665 26.666H60.2207V29.8455H86.7665V26.666Z" fill="url(#paint3_linear_2488_4209)"/>
<path d="M86.7665 37.0796H60.2207V40.2591H86.7665V37.0796Z" fill="url(#paint4_linear_2488_4209)"/>
<path d="M86.7665 46.4229H60.2207V49.6024H86.7665V46.4229Z" fill="url(#paint5_linear_2488_4209)"/>
<path d="M50.9965 6.22412H46.7266V77.072H50.9965V6.22412Z" fill="url(#paint6_linear_2488_4209)"/>
<path d="M50.9974 16.9019H47.0176V17.6164H50.9974V16.9019Z" fill="#E9EAFF"/>
<path d="M50.9974 31.2148H47.0176V31.9293H50.9974V31.2148Z" fill="#E9EAFF"/>
<path d="M50.9974 45.5298H47.0176V46.2443H50.9974V45.5298Z" fill="#E9EAFF"/>
<path d="M50.9974 59.8433H47.0176V60.5578H50.9974V59.8433Z" fill="#E9EAFF"/>
<path d="M47.5424 6.22412H46.4922V77.072H47.5424V6.22412Z" fill="#9792FF"/>
<path d="M40.8334 10.8169H18.2812V108.993H40.8334V10.8169Z" fill="url(#paint7_linear_2488_4209)"/>
<path d="M22.2541 10.8169H18.2812V18.7809H22.2541V10.8169Z" fill="url(#paint8_linear_2488_4209)"/>
<path d="M22.2541 18.7803H18.2812V30.6156H22.2541V18.7803Z" fill="#D2D3FF"/>
<path d="M22.2541 30.623H18.2812V46.8583H22.2541V30.623Z" fill="#D2D3FF"/>
<path d="M22.2541 46.8511H18.2812V68.1861H22.2541V46.8511Z" fill="url(#paint9_linear_2488_4209)"/>
<path d="M22.2541 68.1855H18.2812V77.071H22.2541V68.1855Z" fill="url(#paint10_linear_2488_4209)"/>
<path d="M26.3368 10.8169H25.7012V77.072H26.3368V10.8169Z" fill="url(#paint11_linear_2488_4209)"/>
<path d="M152.999 75.2008C152.992 73.1508 152.329 71.7509 151.362 70.3081C150.906 69.6295 150.374 68.9867 150.097 68.2081C149.883 67.6081 149.842 66.951 149.835 66.3082C149.814 64.3654 150.125 62.4297 150 60.4941C149.883 58.5584 149.254 56.5299 147.762 55.3514C146.953 54.7085 145.924 54.4371 144.908 54.4728C144.908 54.4728 144.888 54.4728 144.874 54.4728C144.86 54.4728 144.853 54.4728 144.839 54.4728C143.824 54.4371 142.794 54.7085 141.986 55.3514C140.5 56.5299 139.864 58.5584 139.747 60.4941C139.63 62.4297 139.934 64.3654 139.913 66.3082C139.913 66.951 139.864 67.601 139.65 68.2081C139.374 68.9867 138.842 69.6295 138.386 70.3081C137.425 71.7509 136.762 73.1508 136.748 75.2008C136.707 83.4934 141.136 85.6219 144.832 85.6147C144.832 85.6147 144.853 85.6147 144.867 85.6147C144.881 85.6147 144.888 85.6147 144.901 85.6147C148.598 85.6147 153.027 83.4934 152.985 75.2008H152.999Z" fill="#9792FF"/>
<path d="M144.57 64.8154H144.225V109H144.57V64.8154Z" fill="url(#paint12_linear_2488_4209)"/>
<path d="M25.2804 55.458H8.53906V108.999H25.2804V55.458Z" fill="url(#paint13_linear_2488_4209)"/>
<path d="M25.2732 55.458H17.0234V108.999H25.2732V55.458Z" fill="url(#paint14_linear_2488_4209)"/>
<path d="M8.54688 55.458H0V108.999H8.54688V55.458Z" fill="#73A9B5"/>
<path d="M8.54688 55.458H0V108.999H8.54688V55.458Z" fill="url(#paint15_linear_2488_4209)"/>
<path d="M15.9055 59.2012H11.5664V65.4153H15.9055V59.2012Z" fill="url(#paint16_linear_2488_4209)"/>
<path d="M13.9769 59.186H13.4863V65.4358H13.9769V59.186Z" fill="#9792FF"/>
<path d="M16.1535 70.8301H11.8145V77.0442H16.1535V70.8301Z" fill="url(#paint17_linear_2488_4209)"/>
<path d="M14.2249 70.8223H13.7344V77.0721H14.2249V70.8223Z" fill="#9792FF"/>
<path d="M16.3957 82.4634H12.0566V88.6775H16.3957V82.4634Z" fill="url(#paint18_linear_2488_4209)"/>
<path d="M14.4749 82.4502H13.9844V88.7H14.4749V82.4502Z" fill="#9792FF"/>
<path d="M16.6438 94.0918H12.3047V100.306H16.6438V94.0918Z" fill="url(#paint19_linear_2488_4209)"/>
<path d="M14.7171 94.085H14.2266V100.335H14.7171V94.085Z" fill="#9792FF"/>
<path d="M33.109 77.0718H15.2207V108.992H33.109V77.0718Z" fill="#D2D3FF"/>
<path d="M33.109 77.0718H15.2207V79.2581H33.109V77.0718Z" fill="url(#paint20_linear_2488_4209)"/>
<path d="M67.7805 77.0718H33.1094V108.992H67.7805V77.0718Z" fill="url(#paint21_linear_2488_4209)"/>
<path d="M67.7805 77.0718H33.1094V79.2581H67.7805V77.0718Z" fill="url(#paint22_linear_2488_4209)"/>
<path d="M61.54 94.8496H38.5664V108.999H61.54V94.8496Z" fill="#D2D3FF"/>
<path d="M43.7635 94.8496H43.418V108.999H43.7635V94.8496Z" fill="url(#paint23_linear_2488_4209)"/>
<path d="M48.3025 94.8496H47.957V108.999H48.3025V94.8496Z" fill="url(#paint24_linear_2488_4209)"/>
<path d="M52.4959 94.8496H52.1504V108.992H52.4959V94.8496Z" fill="url(#paint25_linear_2488_4209)"/>
<path d="M56.8357 94.8496H56.4902V108.992H56.8357V94.8496Z" fill="url(#paint26_linear_2488_4209)"/>
<path d="M61.54 91.9927H38.5664V94.079H61.54V91.9927Z" fill="#D2D3FF"/>
<path d="M22.63 97.5503H19.5898V108.529H22.63V97.5503Z" fill="url(#paint27_linear_2488_4209)"/>
<path d="M22.3163 98.2431H19.5664V97.5503H22.6273V108.536H22.3163V98.2431Z" fill="url(#paint28_linear_2488_4209)"/>
<path d="M22.6549 99.0566H19.5664V99.4282H22.6549V99.0566Z" fill="url(#paint29_linear_2488_4209)"/>
<path d="M28.7432 97.5503H25.7031V108.529H28.7432V97.5503Z" fill="url(#paint30_linear_2488_4209)"/>
<path d="M28.4296 98.2431H25.6797V97.5503H28.7405V108.536H28.4296V98.2431Z" fill="url(#paint31_linear_2488_4209)"/>
<path d="M28.7682 99.0493H25.6797V99.4208H28.7682V99.0493Z" fill="url(#paint32_linear_2488_4209)"/>
<path d="M68.4149 74.3857H14.5703V77.0437H68.4149V74.3857Z" fill="#D2D3FF"/>
<path d="M100.261 29.8525H91.0996V109H100.261V29.8525Z" fill="url(#paint33_linear_2488_4209)"/>
<path d="M113.535 29.8525H100.262V109H113.535V29.8525Z" fill="url(#paint34_linear_2488_4209)"/>
<path d="M96.4336 34.0591H91.0996V45.8087H96.4336V34.0591Z" fill="url(#paint35_linear_2488_4209)"/>
<g opacity="0.55">
<path d="M96.4331 45.8086H95.7422V50.2156H96.4331V45.8086Z" fill="#E9EAFF"/>
<path d="M96.4331 55.3154H95.7422V59.7224H96.4331V55.3154Z" fill="#E9EAFF"/>
<path d="M96.4331 64.8218H95.7422V69.2288H96.4331V64.8218Z" fill="#E9EAFF"/>
<path d="M96.4331 74.335H95.7422V78.742H96.4331V74.335Z" fill="#E9EAFF"/>
<path d="M96.4331 83.8428H95.7422V88.2498H96.4331V83.8428Z" fill="#E9EAFF"/>
<path d="M96.4331 93.3496H95.7422V97.7566H96.4331V93.3496Z" fill="#E9EAFF"/>
<path d="M96.4331 102.856H95.7422V107.263H96.4331V102.856Z" fill="#E9EAFF"/>
</g>
<path d="M106.964 95.749C105.769 95.749 104.795 96.7419 104.795 97.9704V108.991H109.134V97.9704C109.134 96.7419 108.167 95.749 106.964 95.749Z" fill="url(#paint36_linear_2488_4209)"/>
<path d="M106.963 95.749V108.999" stroke="#9792FF" stroke-width="1.67677"/>
<path d="M109.194 99.3564H104.834" stroke="#9792FF" stroke-width="1.67677"/>
<path d="M139.173 72.3994H113.035V108.991H139.173V72.3994Z" fill="url(#paint37_linear_2488_4209)"/>
<path d="M117.692 72.3994H113.035V108.991H117.692V72.3994Z" fill="url(#paint38_linear_2488_4209)"/>
<path d="M123.33 76.2285H120.338V80.2654H123.33V76.2285Z" fill="#E9EAFF"/>
<path d="M129.908 76.2285H126.916V80.2654H129.908V76.2285Z" fill="#E9EAFF"/>
<path d="M135.718 76.2285H132.727V80.2654H135.718V76.2285Z" fill="#E9EAFF"/>
<path d="M125.41 64.8154H113.533V72.4081H125.41V64.8154Z" fill="url(#paint39_linear_2488_4209)"/>
<path d="M117.686 64.8154H113.533V72.4081H117.686V64.8154Z" fill="url(#paint40_linear_2488_4209)"/>
<path d="M121.748 68.3721H120.256V72.409H121.748V68.3721Z" fill="#E9EAFF"/>
<path d="M123.393 68.3721H121.9V72.409H123.393V68.3721Z" fill="#E9EAFF"/>
</g>
<path d="M74.3516 98.3037C73.1495 99.5558 70.0442 99.2428 68.6418 98.9297L69.8439 102.686H70.7454C72.9091 102.686 74.051 99.7645 74.3516 98.3037Z" fill="white"/>
<path d="M54.5172 73.575C54.2768 74.8271 52.614 75.1401 51.8126 75.1401L50.0095 73.575C49.4085 72.01 48.5069 70.7579 51.8126 69.8188C54.4571 69.0676 55.9196 72.01 56.3203 73.575C55.8195 73.0534 54.7576 72.323 54.5172 73.575Z" fill="white"/>
<path d="M50.01 73.2627L52.4141 75.4538L49.4089 75.1408L50.01 73.2627Z" fill="#ED1B8A"/>
<path d="M52.4146 75.4538C54.5783 76.2051 54.9189 79.9404 54.8187 81.7141C55.2995 82.4655 55.019 85.5746 54.8187 87.0353C57.2228 92.3565 59.3264 93.6086 66.2383 96.7388C71.7677 99.2429 72.3487 108.842 71.948 113.329H63.8342L63.5336 111.138L61.43 112.703H55.4198L54.8187 111.138L51.8136 113.329H41.2956C41.2956 111.075 42.698 109.677 43.3992 109.259C43.5995 109.572 43.6997 109.197 42.4977 105.19C41.2956 101.184 41.9968 92.4609 42.4977 88.6004L43.3992 82.6531C40.7547 81.9018 40.4942 79.2099 40.6946 77.9579L41.8966 77.6448C41.1754 77.6448 40.5944 77.2275 40.3941 77.0188C40.2939 77.0188 40.2137 76.6433 40.6946 75.1408C41.1754 73.6383 42.097 74.0974 42.4977 74.5147C42.9985 75.3495 44.3007 76.7059 45.5028 75.4538C47.0054 73.8887 49.7099 74.5148 52.4146 75.4538Z" fill="white"/>
<path d="M47.606 110.511C53.3155 112.389 52.1137 110.761 50.9117 106.755C61.4294 89.2246 61.4301 106.129 61.4301 106.129C61.4301 106.129 66.3384 108.842 65.9377 113.329H63.8341L63.5336 111.138L61.43 112.703H55.4197L54.8186 111.138L51.8135 113.329H47.3058C47.3058 111.075 46.9048 110.928 47.606 110.511Z" fill="url(#paint41_linear_2488_4209)"/>
<path d="M46.4052 82.9663L49.7109 77.332H52.4155C53.1367 77.332 53.9181 78.5841 54.2186 79.2101C54.3188 80.2535 54.8797 82.4655 56.3222 82.9663C57.7647 83.4671 58.3256 84.2184 58.4258 84.5314C58.1253 84.7401 57.2237 85.533 56.0217 87.0355C54.8196 88.538 53.1167 88.0789 52.4155 87.6616C51.8145 87.3485 49.5306 87.2233 47.6073 86.7225C45.684 86.2217 46.1047 83.488 46.4052 82.9663Z" fill="url(#paint42_linear_2488_4209)"/>
<ellipse cx="0.613356" cy="0.306678" rx="0.613356" ry="0.306678" transform="matrix(-0.692555 0.721365 0.692555 0.721365 46.3164 75.7285)" fill="#1F0247"/>
<path d="M42.1968 87.9738C43.0382 88.4746 51.1621 86.826 53.9168 86.4087L54.8184 87.6608C50.0101 88.9128 44.4005 90.2692 42.1968 90.1649V87.9738Z" fill="#ED1B8A"/>
<path d="M47.3053 83.9049L49.7095 77.0186L53.0151 77.3316C53.7363 77.3316 54.5177 78.5836 54.8182 79.2097C54.9184 80.253 55.4793 82.465 56.9218 82.9659C58.3643 83.4667 58.9252 84.2179 59.0254 84.5309C58.7249 84.7396 57.8233 85.5326 56.6213 87.0351C55.4192 88.5375 53.7163 88.0784 53.0151 87.6611C52.4141 87.3481 50.7312 86.5968 48.8079 86.096C46.8846 85.5952 47.0048 84.4266 47.3053 83.9049Z" fill="white"/>
<ellipse cx="1.20206" cy="1.25206" rx="1.20206" ry="1.25206" transform="matrix(-1 0 0 1 41.8965 87.9741)" fill="#FFCC00"/>
<path d="M40.6958 75.1401C41.1764 75.1401 42.1977 74.723 42.498 74.5144C42.2578 74.2641 41.6971 73.8887 41.5969 73.8887C41.1164 73.8887 40.796 74.8273 40.6958 75.1401Z" fill="#1F0247"/>
<path fill-rule="evenodd" clip-rule="evenodd" d="M93.9972 56.6122L85.969 49.3909C83.6482 49.2767 83.8887 45.494 81.3143 46.4516C80.2229 46.8578 80.2449 46.1268 80.2449 46.1268C80.2449 46.1268 79.3017 46.413 79.6867 45.6773C79.6867 45.6773 80.2418 45.0497 81.654 44.8766C83.0666 44.7031 84.5453 44.5965 86.7748 47.0275C90.0288 49.2591 97.3566 53.9691 97.3566 53.9691L95.764 56.7515L93.9972 56.6122Z" fill="#FE88C1"/>
<path fill-rule="evenodd" clip-rule="evenodd" d="M85.9971 48.5804C86.0021 48.587 86.0063 48.5943 86.0098 48.6021C86.0315 48.6529 86.0094 48.7123 85.961 48.7347C85.15 49.1106 84.2816 48.224 84.2454 48.1858C84.2105 48.146 84.2073 48.0834 84.245 48.0444C84.2824 48.005 84.3433 48.0047 84.3811 48.0437C84.3893 48.0518 85.1922 48.8711 85.8826 48.5513C85.9238 48.5324 85.9704 48.5455 85.9971 48.5804Z" fill="#31166F"/>
<path d="M82.9237 46.7868C83.4864 47.0951 84.6869 47.166 85.2168 47.1629L86.2993 48.4715L85.5045 48.4762C85.0675 48.3651 83.9779 48.0468 83.1155 47.6623C82.0375 47.1816 82.2202 46.4013 82.9237 46.7868Z" fill="#FE88C1"/>
<path fill-rule="evenodd" clip-rule="evenodd" d="M93.1636 51.1747L93.9242 51.6389L95.4784 52.5878L96.1749 54.2852L94.1604 56.7527C94.1604 56.7527 93.3945 56.2441 92.2527 55.1932C92.0445 55.0015 91.7048 54.7666 91.4745 54.5578C92.0103 53.5033 92.6641 52.247 93.1636 51.1747Z" fill="#ED1B8A"/>
<path fill-rule="evenodd" clip-rule="evenodd" d="M93.7175 51.513L91.9013 54.9566L92.4816 55.4014L94.3626 51.8639L93.7175 51.513Z" fill="white"/>
<path fill-rule="evenodd" clip-rule="evenodd" d="M117.799 102.543L119.301 109.368H118.55L117.487 110.329L116.036 110.442L113.185 100.887L117.799 102.543Z" fill="#FE88C1"/>
<path fill-rule="evenodd" clip-rule="evenodd" d="M96.5017 102.543L95 109.368H95.7507L96.8141 110.329L98.2652 110.442L101.116 100.887L96.5017 102.543Z" fill="#FE88C1"/>
<path fill-rule="evenodd" clip-rule="evenodd" d="M107.456 35.6001C107.721 35.3314 108.173 35.4704 108.502 35.6525C109.206 36.0423 109.857 36.5821 110.219 37.3048C110.58 38.0275 110.604 38.9551 110.136 39.6131C109.987 39.8235 109.793 40.0021 109.671 40.2295C109.412 40.7157 109.533 41.3059 109.565 41.8567C109.678 43.7979 108.513 45.6963 106.845 46.6766C106.012 47.166 105.026 47.4525 104.078 47.2783C103.103 47.0985 102.251 46.4357 101.723 45.5903C101.195 44.7453 100.969 43.7332 100.955 42.7351C100.947 42.0909 101.027 41.4313 101.312 40.8546C101.743 39.9802 102.609 39.3841 103.531 39.0821C104.515 38.7602 105.672 38.6824 106.35 37.895C106.785 37.3909 106.919 36.7011 107.172 36.0851C107.258 35.8764 107.366 35.6763 107.499 35.495C107.603 35.3533 107.723 35.2223 107.86 35.1136C108 35.0032 107.818 34.7897 107.976 34.7111C108.084 34.6571 108.64 34.3309 108.75 34.2789C109.067 34.1285 109.442 34.0785 109.784 34.0364C110.499 33.9487 111.234 34.0177 111.912 34.263C111.995 34.2932 112.077 34.3257 112.158 34.3607C112.902 34.6841 114.348 35.5394 114.706 37.1611C114.905 38.0648 115.003 38.9713 115.026 39.8969C115.048 40.822 115.131 42.2572 115.877 42.7994C116.305 43.1101 116.847 43.209 117.372 43.2645C119.19 43.457 121.221 43.2959 122.624 44.4746C123.905 45.5502 124.204 47.5319 123.562 49.0826C123.366 49.3409 123.139 49.5775 122.869 49.7787C122.1 50.3506 121.228 50.3419 120.316 50.3669C119.964 50.3764 119.628 50.3931 119.31 50.5574C119.037 50.6983 118.821 50.9249 118.644 51.1738C118.27 51.7005 118.107 52.3367 117.781 52.8895C117.592 53.2094 117.368 53.4932 117.117 53.7417C116.728 54.0191 116.477 54.2302 116.268 54.383C116.043 54.51 115.805 54.6097 115.559 54.6914C115.42 54.7069 115.258 54.7069 115.054 54.691C112.695 54.5096 113.217 51.1555 110.905 51.6643C110.17 51.8259 109.422 52.0227 108.675 51.9279C108.6 51.9179 108.526 51.8993 108.452 51.8842C108.21 51.6366 107.977 51.3802 107.76 51.1051C107.281 50.501 106.793 49.8386 106.097 49.4735C105.873 49.3556 105.674 49.6981 105.899 49.816C106.661 50.2161 107.158 50.9849 107.691 51.6465C107.511 51.5719 107.333 51.4913 107.158 51.4036C106.377 51.0114 105.634 50.5423 104.942 50.0053C104.016 49.2858 103.129 48.3312 103.055 47.156C103.008 46.4051 103.327 45.6387 103.892 45.1462C104.623 44.5088 105.789 44.2182 106.025 43.2744C106.201 42.5644 105.73 41.8758 105.526 41.1733C105.332 40.5073 105.422 39.783 105.712 39.1591C105.858 38.8435 106.055 38.5518 106.294 38.3002C106.537 38.045 106.832 37.8485 107.075 37.5929C107.248 37.4112 107.398 37.2095 107.575 37.0317C107.834 36.773 106.991 36.0744 107.161 35.7506C107.438 35.2247 107.47 34.4821 108.75 34.2789" fill="#1F0247"/>
<path fill-rule="evenodd" clip-rule="evenodd" d="M107.072 71.5161L103.709 87.8275L102.791 101.205L96.3697 103.116L96.6568 87.6037C96.6568 87.6037 95.6997 83.1274 97.2808 82.1465C97.614 79.7701 101.362 63.9395 101.362 63.9395L107.072 71.5161Z" fill="#5F00FF"/>
<path fill-rule="evenodd" clip-rule="evenodd" d="M110.514 59.4814C110.514 59.4814 113.554 64.7274 114.336 69.5062C114.756 72.0769 119.301 103.715 119.301 103.715L113.934 104.072L105.648 71.9587C105.648 71.9587 104.985 70.6417 103.85 70.8228C103.361 70.9778 103.882 70.4255 103.17 69.9568C102.24 69.3446 101.859 68.1587 101.407 67.9036C100.608 67.4535 101.034 63.5683 101.407 63.343C101.779 63.1178 110.514 59.4814 110.514 59.4814Z" fill="#5F00FF"/>
<path fill-rule="evenodd" clip-rule="evenodd" d="M113.188 52.0202L110.892 55.8966C110.892 55.8966 110.422 56.8996 110.263 57.7127C110.103 58.5262 111.974 63.3733 111.974 63.3733C111.974 63.3733 106.354 64.4463 104.506 64.2294C103.618 64.1252 100.956 63.7892 100.956 63.7892L101.223 53.0772C101.223 53.0772 100.664 50.2857 101.515 48.6591C102.366 47.0325 113.188 52.0202 113.188 52.0202Z" fill="#ED1B8A"/>
<path fill-rule="evenodd" clip-rule="evenodd" d="M110.107 46.3821L112.688 46.9732C112.688 46.9732 114.869 47.6771 115.701 50.8863C116.532 54.0955 117.753 63.7238 117.753 63.7238C117.753 63.7238 118.064 66.0604 116.272 65.8351C114.48 65.6103 113.94 64.1177 113.94 64.1177L111.181 52.9414L101.321 50.0249L96.4004 56.8545C96.4004 56.8545 94.7379 58.3186 93.4653 56.3196C92.6075 54.9726 95.5953 51.0834 95.5953 51.0834L98.6864 46.3821C98.6864 46.3821 99.6475 44.9462 102.323 45.1714C104.998 45.3967 108.22 46.3255 108.22 46.3255L110.107 46.3821Z" fill="#ED1B8A"/>
<path fill-rule="evenodd" clip-rule="evenodd" d="M109.678 48.0282C108.477 48.5706 106.694 48.3614 105.551 47.6116C104.9 47.185 104.412 46.4585 104.153 45.675C104.096 45.5017 104.052 45.3253 104.014 45.1475C106.075 45.5323 107.865 46.0612 107.865 46.0612L109.861 46.1227L111.658 46.5649C111.258 47.1702 110.307 47.7445 109.678 48.0282Z" fill="#FE88C1"/>
<path fill-rule="evenodd" clip-rule="evenodd" d="M105.543 38.247C105.543 40.4461 107.935 41.9627 109.804 41.9627C111.672 41.9627 113.188 41.2454 113.188 37.9816C113.188 35.7824 111.672 34 109.804 34C107.935 34 105.543 36.0482 105.543 38.247Z" fill="#1F0247"/>
<path fill-rule="evenodd" clip-rule="evenodd" d="M110.129 42.2679L109.174 45.7162C109.174 45.7162 108.796 46.7581 107.165 46.7403C105.534 46.7221 105.395 45.6082 105.633 44.8361C105.872 44.064 106.111 41.9629 106.111 41.9629L110.129 42.2679Z" fill="#FE88C1"/>
<path fill-rule="evenodd" clip-rule="evenodd" d="M107.071 43.7784C107.149 43.0806 107.205 42.3978 107.205 42.3978L110.129 41.9629L109.321 45.148C108.577 44.6769 107.828 44.2176 107.071 43.7784Z" fill="#ED5196"/>
<path fill-rule="evenodd" clip-rule="evenodd" d="M105.542 40.0227C105.542 41.9367 105.901 43.952 108.738 43.4881C109.68 43.3344 110.961 43.0916 111.65 40.6153C111.776 40.1654 110.339 41.4057 110.791 38.7248C111.059 37.136 109.886 35.5928 108.563 35.5928C106.798 35.5928 105.542 38.1083 105.542 40.0227Z" fill="#FE88C1"/>
<path fill-rule="evenodd" clip-rule="evenodd" d="M110.339 40.8241C109.913 41.2211 110.158 41.696 110.887 41.8853C111.616 42.0742 112.552 41.9053 112.978 41.5084C113.405 41.1118 113.159 40.6368 112.43 40.4476C111.702 40.2587 110.765 40.4272 110.339 40.8241Z" fill="#FE88C1"/>
<path fill-rule="evenodd" clip-rule="evenodd" d="M110.129 46.4119C110.028 46.3234 110.129 45.1475 110.129 45.1475L107.288 45.6474L107.071 46.74L110.129 46.4119Z" fill="white"/>
<path fill-rule="evenodd" clip-rule="evenodd" d="M105.931 45.1475L107.072 45.8625L106.892 46.7392L105.544 45.8864L105.931 45.1475Z" fill="white"/>
<path fill-rule="evenodd" clip-rule="evenodd" d="M114.824 60.7979L104.766 59.5393C104.766 59.5393 104.11 59.1839 103.9 58.7738C103.69 58.3634 101.658 56.397 100.95 56.397L101.143 56.9994C101.143 56.9994 102.718 58.9654 98.8315 57.406C98.8315 57.406 97.8075 57.0779 97.8861 57.6249C97.8861 57.6249 97.7026 60.1413 98.5428 60.7979C99.3833 61.4545 101.116 61.6184 103.086 61.7553C105.056 61.8919 116.558 65.2838 116.558 65.2838C116.558 65.2838 117.162 64.436 117.214 64.2171C117.266 63.9983 116.872 62.0011 116.847 61.7826C116.82 61.5638 114.824 60.7979 114.824 60.7979Z" fill="#FE88C1"/>
<path fill-rule="evenodd" clip-rule="evenodd" d="M100.349 58.954C100.398 58.954 100.44 58.915 100.445 58.8632C100.45 58.8086 100.412 58.7592 100.358 58.7536C99.2172 58.6347 97.9911 57.6765 97.9791 57.6668C97.9367 57.6335 97.8766 57.6419 97.8438 57.6861C97.8118 57.7303 97.8199 57.7933 97.8627 57.8267C97.9144 57.8676 99.1435 58.8287 100.34 58.9536C100.343 58.954 100.346 58.954 100.349 58.954Z" fill="#31166F"/>
<path fill-rule="evenodd" clip-rule="evenodd" d="M100.181 59.8693C100.226 59.8693 100.266 59.8367 100.275 59.7898C100.286 59.7351 100.253 59.6821 100.201 59.6705C98.757 59.354 98.0036 58.4548 97.9959 58.4456C97.9608 58.4038 97.9002 58.3986 97.8598 58.4347C97.8197 58.4705 97.8147 58.5339 97.8494 58.5757C97.8814 58.6151 98.6498 59.5355 100.161 59.8673C100.168 59.8685 100.175 59.8693 100.181 59.8693Z" fill="#31166F"/>
<path fill-rule="evenodd" clip-rule="evenodd" d="M99.8822 60.6091C99.9265 60.6091 99.9662 60.5774 99.9762 60.5304C99.9878 60.4762 99.955 60.4228 99.903 60.4108C98.5742 60.1045 98.054 59.498 98.0489 59.492C98.0135 59.4502 97.953 59.4458 97.9129 59.482C97.8728 59.5181 97.8682 59.5811 97.9029 59.6232C97.9252 59.6501 98.4636 60.2844 99.8614 60.6067C99.8683 60.6083 99.8752 60.6091 99.8822 60.6091Z" fill="#31166F"/>
<path fill-rule="evenodd" clip-rule="evenodd" d="M112.185 64.1318C112.079 63.1023 111.828 62.0939 111.658 61.0737L115.203 61.4771C115.203 61.4771 117.345 62.2239 117.373 62.4373C117.402 62.6503 117.825 64.5974 117.768 64.8108C117.712 65.0243 117.064 65.8513 117.064 65.8513C117.064 65.8513 114.927 65.8349 112.258 65.1515C112.242 64.9996 112.201 64.2841 112.185 64.1318Z" fill="#ED1B8A"/>
<path fill-rule="evenodd" clip-rule="evenodd" d="M113.092 38.6893C113.092 38.6893 111.008 39.0708 109.431 38.2481L110.256 36.4465L109.076 38.193C109.076 38.193 107.205 37.574 107.069 37.3978L107.915 36.1469L106.783 37.2228C106.783 37.2228 105.725 36.8229 105.543 36.2035C105.543 36.2035 106.964 33.2729 110.016 34.1711C111.646 34.6509 113.651 37.7097 113.092 38.6893Z" fill="#1F0247"/>
<path fill-rule="evenodd" clip-rule="evenodd" d="M119.704 107.262H118.962C118.962 107.262 118.604 107.182 118.301 107.665C117.999 108.149 117.667 109.018 116.844 108.874C116.02 108.73 115.662 107.655 115.662 107.655C115.662 107.655 115.468 107.397 115.138 107.504L114.726 112.124C114.726 112.124 114.643 112.687 114.946 112.849L114.973 113.627H125.178V112.876C125.178 112.876 125.921 111.667 124.793 110.969C123.665 110.27 121.299 109.599 120.474 108.766C119.649 107.934 119.787 107.504 119.704 107.262Z" fill="white"/>
<path fill-rule="evenodd" clip-rule="evenodd" d="M95.421 106.921L96.4362 107.14C96.4362 107.14 97.0334 107.176 97.0851 107.76C97.1367 108.343 97.8018 109.401 98.4669 108.817C99.1324 108.234 99.1324 107.468 99.1324 107.468C99.1324 107.468 99.1324 107.213 99.4825 107.249C99.8326 107.286 99.7979 111.881 99.7979 111.881C99.7979 111.881 99.5527 111.954 99.4825 112.136C99.4127 112.318 99.4825 112.501 99.4825 112.501H88.804L88.979 111.626C88.979 111.626 88.7342 111.079 88.804 110.568C88.8742 110.057 89.2242 109.291 91.1501 108.853C93.0756 108.416 95.421 106.921 95.421 106.921Z" fill="white"/>
<path fill-rule="evenodd" clip-rule="evenodd" d="M88.9753 111.619H99.7969C99.7965 111.782 99.7957 111.879 99.7957 111.879C99.7957 111.879 99.5509 111.952 99.4807 112.135C99.4105 112.317 99.4807 112.499 99.4807 112.499H88.8022L88.9773 111.624C88.9773 111.624 88.9757 111.62 88.9753 111.619Z" fill="#EDEDED"/>
<path fill-rule="evenodd" clip-rule="evenodd" d="M113.188 61.0737L113.979 64.1608L114.717 64.2588L113.921 61.1353L113.188 61.0737Z" fill="white"/>
<path fill-rule="evenodd" clip-rule="evenodd" d="M113.188 61.0728L110.535 51.5912C110.52 51.5376 110.466 51.5049 110.414 51.5223C110.361 51.5376 110.331 51.5932 110.346 51.6464L112.916 60.8358L104.124 59.7308C104.072 59.7223 104.021 59.763 104.015 59.8187C104.008 59.8735 104.046 59.9239 104.101 59.9307L113.188 61.0728Z" fill="#31166F"/>
<path fill-rule="evenodd" clip-rule="evenodd" d="M111.121 42.4771C111.121 42.6629 111.265 42.8135 111.443 42.8135C111.621 42.8135 111.766 42.6629 111.766 42.4771C111.766 42.2916 111.621 42.1411 111.443 42.1411C111.265 42.1411 111.121 42.2916 111.121 42.4771Z" fill="#ED1B8A"/>
<path fill-rule="evenodd" clip-rule="evenodd" d="M107.568 39.9993C107.487 40.1739 107.637 40.4248 107.904 40.5596C108.171 40.6949 108.453 40.6632 108.535 40.4894C108.616 40.3148 108.466 40.0639 108.199 39.9286C107.932 39.7933 107.65 39.8251 107.568 39.9993Z" fill="white"/>
<path fill-rule="evenodd" clip-rule="evenodd" d="M107.577 40.0055C107.504 40.1845 107.569 40.384 107.72 40.4502C107.872 40.5169 108.054 40.4257 108.126 40.2467C108.199 40.0673 108.135 39.8682 107.983 39.8016C107.831 39.7349 107.649 39.8264 107.577 40.0055Z" fill="#1F0247"/>
<path fill-rule="evenodd" clip-rule="evenodd" d="M107.762 41.7605C107.762 41.7605 106.625 41.4422 105.754 41.6128C105.754 41.6128 105.662 42.3008 106.377 42.4545C107.091 42.6079 107.689 42.1302 107.762 41.7605Z" fill="#ED1B8A"/>
<path fill-rule="evenodd" clip-rule="evenodd" d="M108.057 38.8967C108.035 38.983 108.307 39.1315 108.603 39.3531C108.901 39.5706 109.125 39.789 109.196 39.7384C109.265 39.6935 109.124 39.3519 108.777 39.0966C108.431 38.8397 108.075 38.8148 108.057 38.8967Z" fill="#1F0247"/>
<path fill-rule="evenodd" clip-rule="evenodd" d="M105.655 37.9324C105.671 38.0199 105.978 38.026 106.338 38.0866C106.699 38.142 106.994 38.2331 107.035 38.1548C107.077 38.083 106.804 37.8425 106.384 37.7759C105.965 37.7072 105.636 37.8505 105.655 37.9324Z" fill="#1F0247"/>
<path fill-rule="evenodd" clip-rule="evenodd" d="M108.534 40.4891C108.534 40.4891 108.328 40.0098 108.01 39.8577C108.01 39.8577 107.731 39.8035 107.754 39.5928C107.754 39.5928 107.827 39.6799 107.984 39.6775C108.139 39.6751 108.68 39.9934 108.534 40.4891Z" fill="#1F0247"/>
<path fill-rule="evenodd" clip-rule="evenodd" d="M105.402 38.8036C105.321 38.979 105.472 39.2303 105.74 39.3659C106.007 39.5016 106.291 39.4699 106.372 39.2953C106.454 39.1203 106.303 38.8686 106.035 38.7329C105.767 38.5968 105.484 38.6286 105.402 38.8036Z" fill="white"/>
<path fill-rule="evenodd" clip-rule="evenodd" d="M105.403 38.8126C105.331 38.9916 105.395 39.1911 105.546 39.2578C105.698 39.3244 105.88 39.2333 105.953 39.0538C106.025 38.8744 105.961 38.6753 105.809 38.6087C105.657 38.542 105.476 38.6336 105.403 38.8126Z" fill="#1F0247"/>
<path fill-rule="evenodd" clip-rule="evenodd" d="M106.374 39.2964C106.374 39.2964 106.167 38.8155 105.847 38.663C105.847 38.663 105.568 38.6084 105.59 38.3965C105.59 38.3965 105.665 38.4848 105.821 38.482C105.977 38.4792 106.52 38.7991 106.374 39.2964Z" fill="#1F0247"/>
<path fill-rule="evenodd" clip-rule="evenodd" d="M106.025 40.9856C106.067 40.9856 106.106 40.9563 106.118 40.9113C106.132 40.8579 106.102 40.803 106.05 40.7885C105.981 40.7688 105.918 40.7183 105.883 40.6528C105.848 40.5874 105.839 40.5055 105.86 40.4341C105.89 40.3301 105.979 40.2414 106.057 40.1627C106.096 40.1242 106.097 40.0608 106.06 40.021C106.024 39.9801 105.963 39.9797 105.924 40.0178C105.833 40.1085 105.72 40.2221 105.675 40.3763C105.639 40.5003 105.654 40.6368 105.715 40.7508C105.776 40.864 105.88 40.9483 106 40.982C106.008 40.9844 106.017 40.9856 106.025 40.9856Z" fill="#1F0247"/>
<path fill-rule="evenodd" clip-rule="evenodd" d="M106.678 42.1565C107.177 42.1565 107.664 41.9494 107.698 41.9345C107.748 41.9137 107.771 41.8547 107.75 41.8037C107.73 41.7519 107.674 41.727 107.624 41.7495C107.612 41.7547 106.352 42.2902 105.928 41.6094C105.899 41.5624 105.839 41.5496 105.795 41.5797C105.75 41.6098 105.738 41.672 105.766 41.7182C105.976 42.0558 106.33 42.1565 106.678 42.1565Z" fill="#F746A7"/>
<path fill-rule="evenodd" clip-rule="evenodd" d="M105.138 72.4091C105.15 72.4091 105.163 72.4067 105.175 72.4011C105.224 72.3802 105.247 72.3212 105.227 72.2702C105.184 72.1638 104.164 69.6602 102.451 69.3538C102.399 69.3417 102.349 69.3807 102.339 69.4357C102.331 69.4899 102.366 69.5417 102.418 69.5513C104.027 69.8393 105.039 72.3224 105.049 72.3477C105.064 72.3858 105.1 72.4091 105.138 72.4091Z" fill="#31166F"/>
<path d="M79.9525 44.1C79.1155 43.5415 79.7782 43.5182 80.2141 43.5764L84.1376 44.7982L82.8297 45.1472C82.2194 45.0309 80.7895 44.6585 79.9525 44.1Z" fill="#FE88C1"/>
<defs>
<linearGradient id="paint0_linear_2488_4209" x1="24.9957" y1="-44.961" x2="109.421" y2="115.726" gradientUnits="userSpaceOnUse">
<stop offset="0.28" stop-color="#BFC4FF"/>
<stop offset="1" stop-color="#7272F7"/>
</linearGradient>
<linearGradient id="paint1_linear_2488_4209" x1="106.852" y1="-13.8975" x2="32.031" y2="33.8249" gradientUnits="userSpaceOnUse">
<stop offset="0.28" stop-color="#E7E8FF"/>
<stop offset="1" stop-color="#B4B5FF"/>
</linearGradient>
<linearGradient id="paint2_linear_2488_4209" x1="111.267" y1="-6.97615" x2="36.446" y2="40.7462" gradientUnits="userSpaceOnUse">
<stop offset="0.28" stop-color="#E7E8FF"/>
<stop offset="1" stop-color="#B4B5FF"/>
</linearGradient>
<linearGradient id="paint3_linear_2488_4209" x1="115.482" y1="-0.377687" x2="40.6608" y2="47.3447" gradientUnits="userSpaceOnUse">
<stop offset="0.28" stop-color="#E7E8FF"/>
<stop offset="1" stop-color="#B4B5FF"/>
</linearGradient>
<linearGradient id="paint4_linear_2488_4209" x1="97.0338" y1="25.8906" x2="59.8378" y2="44.7698" gradientUnits="userSpaceOnUse">
<stop offset="0.28" stop-color="#E7E8FF"/>
<stop offset="1" stop-color="#B4B5FF"/>
</linearGradient>
<linearGradient id="paint5_linear_2488_4209" x1="97.0338" y1="35.241" x2="59.8381" y2="54.1133" gradientUnits="userSpaceOnUse">
<stop offset="0.28" stop-color="#E7E8FF"/>
<stop offset="1" stop-color="#B4B5FF"/>
</linearGradient>
<linearGradient id="paint6_linear_2488_4209" x1="85.9234" y1="-35.646" x2="7.48431" y2="117.433" gradientUnits="userSpaceOnUse">
<stop offset="0.28" stop-color="#BFC4FF"/>
<stop offset="1" stop-color="#7272F7"/>
</linearGradient>
<linearGradient id="paint7_linear_2488_4209" x1="-12.7072" y1="-8.38253" x2="67.1509" y2="112.363" gradientUnits="userSpaceOnUse">
<stop offset="0.28" stop-color="#BFC4FF"/>
<stop offset="1" stop-color="#7272F7"/>
</linearGradient>
<linearGradient id="paint8_linear_2488_4209" x1="32.1552" y1="-9.10394" x2="2.55781" y2="46.5662" gradientUnits="userSpaceOnUse">
<stop offset="0.28" stop-color="#BFC4FF"/>
<stop offset="1" stop-color="#7272F7"/>
</linearGradient>
<linearGradient id="paint9_linear_2488_4209" x1="48.3577" y1="39.7013" x2="-9.89621" y2="74.2754" gradientUnits="userSpaceOnUse">
<stop offset="0.28" stop-color="#BFC4FF"/>
<stop offset="1" stop-color="#7272F7"/>
</linearGradient>
<linearGradient id="paint10_linear_2488_4209" x1="36.2249" y1="51.0361" x2="6.8067" y2="88.2779" gradientUnits="userSpaceOnUse">
<stop offset="0.28" stop-color="#BFC4FF"/>
<stop offset="1" stop-color="#7272F7"/>
</linearGradient>
<linearGradient id="paint11_linear_2488_4209" x1="67.8205" y1="36.7947" x2="13.496" y2="45.4917" gradientUnits="userSpaceOnUse">
<stop offset="0.28" stop-color="#BFC4FF"/>
<stop offset="1" stop-color="#7272F7"/>
</linearGradient>
<linearGradient id="paint12_linear_2488_4209" x1="157.782" y1="69.101" x2="131.834" y2="101.409" gradientUnits="userSpaceOnUse">
<stop offset="0.28" stop-color="#BFC4FF"/>
<stop offset="1" stop-color="#7272F7"/>
</linearGradient>
<linearGradient id="paint13_linear_2488_4209" x1="-19.0777" y1="31.7944" x2="32.426" y2="99.3367" gradientUnits="userSpaceOnUse">
<stop offset="0.28" stop-color="#BFC4FF"/>
<stop offset="1" stop-color="#7272F7"/>
</linearGradient>
<linearGradient id="paint14_linear_2488_4209" x1="7.20523" y1="81.0572" x2="25.7647" y2="82.5149" gradientUnits="userSpaceOnUse">
<stop offset="0.28" stop-color="#9DA1FF" stop-opacity="0"/>
<stop offset="1" stop-color="#7272F7"/>
</linearGradient>
<linearGradient id="paint15_linear_2488_4209" x1="21.495" y1="58.6079" x2="-17.5606" y2="108.716" gradientUnits="userSpaceOnUse">
<stop offset="0.28" stop-color="#BFC4FF"/>
<stop offset="1" stop-color="#7272F7"/>
</linearGradient>
<linearGradient id="paint16_linear_2488_4209" x1="13.2385" y1="71.2794" x2="14.1022" y2="56.7331" gradientUnits="userSpaceOnUse">
<stop offset="0.28" stop-color="#E7E8FF"/>
<stop offset="1" stop-color="#B4B5FF"/>
</linearGradient>
<linearGradient id="paint17_linear_2488_4209" x1="13.4865" y1="82.9083" x2="14.3429" y2="68.3691" gradientUnits="userSpaceOnUse">
<stop offset="0.28" stop-color="#E7E8FF"/>
<stop offset="1" stop-color="#B4B5FF"/>
</linearGradient>
<linearGradient id="paint18_linear_2488_4209" x1="13.7287" y1="94.5416" x2="14.5924" y2="79.9953" gradientUnits="userSpaceOnUse">
<stop offset="0.28" stop-color="#E7E8FF"/>
<stop offset="1" stop-color="#B4B5FF"/>
</linearGradient>
<linearGradient id="paint19_linear_2488_4209" x1="13.9768" y1="106.17" x2="14.8331" y2="91.6308" gradientUnits="userSpaceOnUse">
<stop offset="0.28" stop-color="#E7E8FF"/>
<stop offset="1" stop-color="#B4B5FF"/>
</linearGradient>
<linearGradient id="paint20_linear_2488_4209" x1="23.9334" y1="85.0313" x2="24.4875" y2="69.7709" gradientUnits="userSpaceOnUse">
<stop offset="0.28" stop-color="#BFC4FF"/>
<stop offset="1" stop-color="#7272F7"/>
</linearGradient>
<linearGradient id="paint21_linear_2488_4209" x1="81.1432" y1="55.6367" x2="8.45694" y2="138.495" gradientUnits="userSpaceOnUse">
<stop offset="0.28" stop-color="#BFC4FF"/>
<stop offset="1" stop-color="#7272F7"/>
</linearGradient>
<linearGradient id="paint22_linear_2488_4209" x1="50.4035" y1="84.1953" x2="50.47" y2="75.5857" gradientUnits="userSpaceOnUse">
<stop offset="0.28" stop-color="#BFC4FF"/>
<stop offset="1" stop-color="#7272F7"/>
</linearGradient>
<linearGradient id="paint23_linear_2488_4209" x1="54.1351" y1="82.3643" x2="36.5604" y2="112.861" gradientUnits="userSpaceOnUse">
<stop offset="0.28" stop-color="#BFC4FF"/>
<stop offset="1" stop-color="#7272F7"/>
</linearGradient>
<linearGradient id="paint24_linear_2488_4209" x1="57.5962" y1="84.3642" x2="40.0216" y2="114.853" gradientUnits="userSpaceOnUse">
<stop offset="0.28" stop-color="#BFC4FF"/>
<stop offset="1" stop-color="#7272F7"/>
</linearGradient>
<linearGradient id="paint25_linear_2488_4209" x1="60.7945" y1="86.207" x2="43.2269" y2="116.704" gradientUnits="userSpaceOnUse">
<stop offset="0.28" stop-color="#BFC4FF"/>
<stop offset="1" stop-color="#7272F7"/>
</linearGradient>
<linearGradient id="paint26_linear_2488_4209" x1="64.1117" y1="88.1141" x2="46.537" y2="118.61" gradientUnits="userSpaceOnUse">
<stop offset="0.28" stop-color="#BFC4FF"/>
<stop offset="1" stop-color="#7272F7"/>
</linearGradient>
<linearGradient id="paint27_linear_2488_4209" x1="28.4338" y1="90.8219" x2="13.0218" y2="114.899" gradientUnits="userSpaceOnUse">
<stop offset="0.28" stop-color="#E7E8FF"/>
<stop offset="1" stop-color="#B4B5FF"/>
</linearGradient>
<linearGradient id="paint28_linear_2488_4209" x1="19.5664" y1="103.043" x2="22.6273" y2="103.043" gradientUnits="userSpaceOnUse">
<stop offset="0.28" stop-color="#BFC4FF"/>
<stop offset="1" stop-color="#7272F7"/>
</linearGradient>
<linearGradient id="paint29_linear_2488_4209" x1="19.5664" y1="99.2424" x2="22.6549" y2="99.2424" gradientUnits="userSpaceOnUse">
<stop offset="0.28" stop-color="#BFC4FF"/>
<stop offset="1" stop-color="#7272F7"/>
</linearGradient>
<linearGradient id="paint30_linear_2488_4209" x1="34.5402" y1="90.8148" x2="19.128" y2="114.899" gradientUnits="userSpaceOnUse">
<stop offset="0.28" stop-color="#E7E8FF"/>
<stop offset="1" stop-color="#B4B5FF"/>
</linearGradient>
<linearGradient id="paint31_linear_2488_4209" x1="25.6797" y1="103.043" x2="28.7405" y2="103.043" gradientUnits="userSpaceOnUse">
<stop offset="0.28" stop-color="#BFC4FF"/>
<stop offset="1" stop-color="#7272F7"/>
</linearGradient>
<linearGradient id="paint32_linear_2488_4209" x1="25.6797" y1="99.2422" x2="28.7613" y2="99.2422" gradientUnits="userSpaceOnUse">
<stop offset="0.28" stop-color="#BFC4FF"/>
<stop offset="1" stop-color="#7272F7"/>
</linearGradient>
<linearGradient id="paint33_linear_2488_4209" x1="122.862" y1="65.4086" x2="87.3091" y2="70.3207" gradientUnits="userSpaceOnUse">
<stop offset="0.28" stop-color="#BFC4FF"/>
<stop offset="1" stop-color="#7272F7"/>
</linearGradient>
<linearGradient id="paint34_linear_2488_4209" x1="118.461" y1="35.1452" x2="85.8971" y2="125.499" gradientUnits="userSpaceOnUse">
<stop offset="0.28" stop-color="#BFC4FF"/>
<stop offset="1" stop-color="#7272F7"/>
</linearGradient>
<linearGradient id="paint35_linear_2488_4209" x1="105.519" y1="19.7667" x2="90.2337" y2="44.3244" gradientUnits="userSpaceOnUse">
<stop offset="0.28" stop-color="#BFC4FF"/>
<stop offset="1" stop-color="#7272F7"/>
</linearGradient>
<linearGradient id="paint36_linear_2488_4209" x1="107.262" y1="110.449" x2="106.737" y2="99.0505" gradientUnits="userSpaceOnUse">
<stop offset="0.28" stop-color="#E7E8FF"/>
<stop offset="1" stop-color="#B4B5FF"/>
</linearGradient>
<linearGradient id="paint37_linear_2488_4209" x1="142.089" y1="45.6359" x2="115.341" y2="116.181" gradientUnits="userSpaceOnUse">
<stop offset="0.28" stop-color="#BFC4FF"/>
<stop offset="1" stop-color="#7272F7"/>
</linearGradient>
<linearGradient id="paint38_linear_2488_4209" x1="129.59" y1="60.5855" x2="112.304" y2="94.8173" gradientUnits="userSpaceOnUse">
<stop offset="0.28" stop-color="#BFC4FF"/>
<stop offset="1" stop-color="#7272F7"/>
</linearGradient>
<linearGradient id="paint39_linear_2488_4209" x1="130.302" y1="57.6299" x2="112.638" y2="74.3857" gradientUnits="userSpaceOnUse">
<stop offset="0.28" stop-color="#BFC4FF"/>
<stop offset="1" stop-color="#7272F7"/>
</linearGradient>
<linearGradient id="paint40_linear_2488_4209" x1="122.28" y1="58.5442" x2="107.931" y2="78.8063" gradientUnits="userSpaceOnUse">
<stop offset="0.28" stop-color="#BFC4FF"/>
<stop offset="1" stop-color="#7272F7"/>
</linearGradient>
<linearGradient id="paint41_linear_2488_4209" x1="59.6267" y1="111.45" x2="53.2211" y2="97.7839" gradientUnits="userSpaceOnUse">
<stop stop-color="#C1C1C1"/>
<stop offset="1" stop-color="#F0F0F0" stop-opacity="0"/>
</linearGradient>
<linearGradient id="paint42_linear_2488_4209" x1="54.2811" y1="86.6813" x2="49.1882" y2="77.06" gradientUnits="userSpaceOnUse">
<stop stop-color="#C1C1C1"/>
<stop offset="1" stop-color="#F0F0F0" stop-opacity="0"/>
</linearGradient>
</defs>
</svg>
